<?xml version="1.0" standalone="no"?>
<!DOCTYPE svg PUBLIC "-//W3C//DTD SVG 20010904//EN"
 "http://www.w3.org/TR/2001/REC-SVG-20010904/DTD/svg10.dtd">
<svg version="1.0" xmlns="http://www.w3.org/2000/svg"
 width="546.000000pt" height="582.000000pt" viewBox="0 0 546.000000 582.000000"
 preserveAspectRatio="xMidYMid meet">

<g transform="translate(0.000000,582.000000) scale(0.100000,-0.100000)"
fill="#000000" stroke="none">
<path d="M2805 5660 c11 -13 15 -21 9 -17 -11 6 -25 -15 -44 -66 -5 -16 -14
-26 -18 -23 -4 2 -8 -3 -9 -12 -1 -25 -9 -50 -38 -127 -14 -38 -28 -77 -30
-85 -2 -8 -29 -71 -60 -140 -31 -69 -70 -156 -87 -195 -17 -38 -43 -98 -59
-132 -16 -34 -29 -66 -29 -72 0 -6 -4 -11 -10 -11 -5 0 -10 -6 -10 -14 0 -8
-7 -22 -16 -30 -8 -9 -12 -20 -9 -26 3 -5 2 -10 -3 -10 -12 0 -33 -56 -25 -64
4 -3 1 -6 -5 -6 -7 0 -12 -8 -12 -18 0 -10 -4 -22 -10 -28 -5 -5 -11 -18 -13
-29 -2 -11 -8 -29 -14 -41 -7 -11 -8 -26 -4 -33 6 -10 12 -5 19 15 6 16 11 24
11 17 1 -6 -4 -24 -10 -40 -7 -15 -13 -35 -14 -44 -2 -22 -25 -110 -35 -134
-14 -36 -28 -79 -35 -110 -7 -31 -90 -228 -127 -298 -31 -61 -34 -67 -68 -127
-17 -30 -47 -91 -66 -135 -68 -152 -74 -165 -96 -190 -29 -34 -51 -34 -38 0
14 37 -3 30 -19 -7 -88 -203 -184 -397 -194 -391 -6 3 -7 1 -3 -5 9 -14 -25
-83 -37 -75 -6 4 -7 1 -2 -6 6 -11 -276 -595 -295 -611 -3 -3 -12 -21 -20 -40
-8 -19 -17 -37 -21 -40 -11 -8 -69 -129 -69 -144 0 -8 -4 -16 -9 -18 -5 -1
-51 -88 -104 -193 -122 -247 -278 -553 -321 -633 -19 -34 -31 -62 -27 -62 3 0
1 -4 -4 -8 -19 -13 -55 -83 -49 -95 3 -7 -1 -4 -9 6 -13 16 -15 16 -21 2 -4
-11 -2 -14 6 -9 8 5 9 2 3 -12 -4 -10 -8 -27 -9 -36 0 -9 -3 -15 -7 -13 -3 3
-17 -19 -30 -48 -13 -29 -27 -54 -30 -57 -4 -3 -17 -27 -30 -55 -12 -27 -31
-62 -40 -76 -10 -14 -16 -29 -12 -33 3 -3 1 -6 -5 -6 -6 0 -14 -9 -17 -21 -10
-30 -37 -59 -48 -52 -6 3 -7 2 -4 -4 10 -16 -35 -114 -50 -109 -7 3 -10 -1 -7
-9 3 -8 1 -22 -6 -32 -9 -15 -10 -14 -4 7 9 34 1 24 -30 -37 -27 -55 -28 -73
-1 -25 15 26 16 26 9 2 -4 -14 -17 -45 -30 -69 -18 -34 -21 -49 -13 -65 9 -19
9 -20 -4 -3 -13 16 -15 16 -21 1 -3 -9 -3 -20 0 -25 3 -5 2 -9 -3 -8 -22 4
-44 -2 -38 -11 3 -5 13 -6 22 -3 12 5 14 3 8 -8 -8 -12 -6 -12 8 0 15 12 17
12 11 -3 -3 -9 -4 -16 -1 -16 15 0 605 728 633 782 24 47 126 280 190 434 96
234 158 366 248 524 93 162 246 439 246 444 0 2 30 55 66 117 80 137 260 496
310 615 42 102 66 178 94 299 55 231 143 446 382 930 179 362 323 694 368 848
13 42 26 77 29 77 9 0 81 -194 81 -216 0 -25 -160 -511 -196 -596 -18 -42 -74
-145 -124 -228 -51 -83 -103 -179 -117 -213 -34 -85 -41 -219 -18 -342 25
-132 94 -418 104 -428 11 -11 52 75 85 176 25 78 65 157 79 157 4 0 7 -4 7
-10 0 -5 9 -18 21 -28 11 -11 33 -56 49 -100 44 -122 130 -336 141 -346 5 -6
9 -16 9 -22 0 -7 23 -60 51 -118 27 -58 48 -110 45 -115 -4 -5 -1 -11 4 -13
16 -5 132 -260 127 -278 -2 -10 2 -28 10 -41 l14 -24 -6 25 c-3 14 8 0 26 -30
17 -30 33 -71 34 -92 3 -34 20 -78 31 -78 2 0 -2 13 -11 30 -9 16 -12 30 -8
30 5 0 21 -28 37 -63 16 -34 67 -140 113 -235 47 -95 82 -180 79 -188 -3 -8 1
-14 9 -14 7 0 18 -15 24 -33 6 -18 24 -40 40 -50 16 -9 38 -36 49 -59 13 -25
116 -137 265 -287 134 -135 297 -309 362 -386 65 -77 147 -171 183 -208 36
-37 62 -70 59 -73 -8 -8 -61 30 -120 86 -27 25 -56 49 -65 54 -56 30 -291 239
-525 467 -114 111 -143 135 -153 124 -16 -15 -64 -8 -71 11 -3 8 -11 14 -19
14 -7 0 -19 9 -27 20 -8 11 -17 17 -20 13 -4 -3 -7 -1 -7 6 0 7 -5 9 -10 6 -6
-4 -9 -1 -8 7 2 7 -3 12 -10 10 -8 -1 -11 2 -8 7 8 13 -21 34 -35 25 -8 -4 -9
-3 -5 4 4 7 1 12 -9 12 -9 0 -14 4 -11 8 6 10 -48 65 -56 57 -2 -3 -19 13 -37
35 -17 22 -38 40 -45 40 -8 0 -17 7 -20 16 -3 8 -11 12 -16 9 -6 -4 -9 -1 -8
6 2 7 -1 13 -7 14 -5 0 -24 14 -41 30 -69 68 -135 116 -147 108 -6 -3 -7 -1
-3 5 7 11 -26 35 -38 27 -3 -3 -4 -2 -1 2 7 9 -16 34 -26 27 -5 -3 -9 0 -9 5
0 6 -7 11 -17 11 -9 0 -14 3 -10 6 3 3 -6 16 -21 29 -15 13 -30 19 -33 14 -3
-5 -11 2 -18 15 -12 22 -43 40 -63 37 -5 -1 -8 4 -8 9 0 6 -7 10 -15 10 -8 0
-15 5 -15 10 0 6 -11 16 -25 22 -23 10 -29 8 -63 -23 -39 -37 -224 -184 -352
-281 -97 -73 -229 -178 -378 -300 -112 -92 -142 -111 -142 -89 0 5 44 96 98
203 54 106 108 227 121 268 33 103 210 588 228 623 8 16 72 125 144 244 71
119 138 241 149 270 l20 54 -54 247 c-30 136 -60 273 -66 305 -6 31 -15 57
-19 57 -9 0 -33 -48 -76 -155 -27 -66 -82 -177 -138 -280 -6 -11 -12 -25 -13
-32 -1 -6 -11 -24 -22 -40 -63 -91 -104 -166 -230 -423 -77 -157 -189 -386
-250 -510 -61 -124 -168 -331 -238 -460 -70 -129 -196 -375 -281 -547 -153
-312 -153 -312 -315 -530 -315 -426 -452 -609 -505 -674 -29 -36 -53 -69 -53
-73 0 -4 14 0 30 9 17 9 30 18 30 21 0 3 -5 2 -10 -1 -16 -10 -11 8 10 35 11
14 20 19 20 13 0 -7 5 -13 11 -13 8 0 7 5 -1 15 -11 13 -10 14 3 10 8 -4 18
-2 22 4 3 6 15 11 26 11 10 0 19 5 19 11 0 6 7 9 15 5 8 -3 15 -1 15 5 0 6 9
5 22 -2 21 -11 22 -11 9 4 -12 15 -11 17 8 17 11 0 21 5 21 12 0 6 3 9 6 5 3
-3 11 -1 18 4 64 53 72 58 61 37 -4 -7 0 -6 7 3 8 9 32 27 54 40 123 72 314
191 319 199 3 5 13 6 23 3 9 -3 14 -2 10 2 -9 10 54 55 76 55 9 0 16 5 16 11
0 7 10 9 25 7 20 -4 23 -2 15 8 -9 9 -5 12 15 10 20 -3 23 -1 14 10 -9 11 -7
14 10 14 14 0 20 -4 15 -12 -4 -7 -3 -8 5 -4 9 6 9 11 1 21 -8 10 -4 16 20 26
16 8 30 17 30 21 0 5 7 8 15 8 7 0 19 8 24 17 6 10 11 14 11 10 0 -5 12 0 28
10 15 10 39 25 55 33 15 7 27 17 27 22 0 4 9 8 20 8 11 0 20 5 20 11 0 7 10 9
24 7 19 -4 23 -1 18 11 -5 14 -4 14 13 1 15 -12 17 -12 10 -1 -6 11 -4 13 8 8
10 -3 17 -2 17 4 0 6 4 8 9 4 5 -3 16 1 24 9 8 8 17 13 20 10 7 -7 177 79 171
87 -2 4 3 10 12 13 10 4 13 2 9 -7 -4 -6 0 -4 8 6 8 10 21 16 28 15 8 -2 13 2
12 7 -1 6 8 12 20 12 12 1 23 7 25 13 2 5 11 10 21 10 9 0 27 9 39 20 12 11
25 20 30 20 13 0 83 57 82 67 -2 10 39 53 51 53 5 0 9 5 9 10 0 7 -6 7 -20 0
-11 -6 -20 -7 -20 -3 1 10 114 93 127 93 6 0 18 9 28 20 10 12 24 19 30 16 14
-5 75 23 75 35 0 5 9 9 19 9 10 0 22 7 25 16 4 9 13 14 22 10 8 -3 12 -2 9 3
-6 10 85 77 98 73 5 -1 6 1 3 6 -2 4 0 14 5 22 7 13 10 13 18 1 10 -16 26 3
16 19 -4 6 -3 9 2 8 4 -1 25 14 45 35 21 20 44 34 51 31 8 -3 20 3 28 13 13
16 12 17 -4 4 -9 -8 -20 -11 -23 -8 -10 10 40 36 76 40 22 2 46 -3 65 -15 17
-10 37 -21 45 -24 8 -4 23 -14 32 -23 35 -33 46 -40 54 -33 4 4 4 1 0 -6 -5
-9 -15 -6 -39 11 -39 29 -57 40 -57 34 0 -3 22 -21 49 -40 33 -24 52 -32 59
-25 7 7 10 4 9 -8 -1 -13 4 -18 16 -16 9 2 17 -1 16 -5 -3 -19 2 -27 10 -15 7
12 12 12 30 0 12 -7 19 -18 17 -25 -3 -7 0 -15 6 -19 7 -4 8 -3 4 4 -13 22 15
12 62 -20 26 -17 49 -34 52 -37 8 -10 69 -51 74 -51 3 0 67 -42 142 -93 75
-50 145 -97 155 -103 13 -7 15 -14 8 -21 -8 -8 -7 -13 2 -18 8 -5 10 -4 5 3
-9 15 6 15 38 1 14 -7 23 -16 20 -20 -3 -5 4 -9 14 -9 11 0 23 -7 26 -16 3 -8
10 -12 16 -9 5 3 10 2 10 -4 0 -6 17 -20 38 -31 64 -35 111 -64 132 -83 11 -9
24 -17 28 -17 4 0 23 -14 42 -30 19 -16 39 -30 43 -30 7 0 64 -37 77 -50 3 -3
12 -9 22 -15 75 -46 227 -162 223 -172 -2 -7 1 -15 7 -19 7 -4 8 -3 4 4 -5 8
1 12 15 12 17 0 19 -3 10 -14 -9 -11 -9 -16 0 -22 8 -4 9 -3 5 4 -11 19 9 14
79 -18 36 -16 70 -30 76 -30 6 0 7 -4 4 -10 -3 -5 3 -10 13 -10 11 0 25 -7 32
-15 7 -9 15 -13 18 -10 3 2 21 -4 41 -14 20 -11 51 -25 69 -33 18 -7 30 -18
28 -24 -3 -7 3 -10 15 -7 10 3 39 -4 64 -16 25 -11 52 -21 60 -21 8 0 15 -4
15 -10 0 -5 6 -9 13 -7 6 1 12 -5 11 -13 -1 -12 8 -15 35 -12 31 2 33 1 17 -9
-15 -9 -16 -13 -5 -20 8 -5 19 -9 24 -9 6 0 3 5 -5 10 -12 8 -10 10 9 10 16 0
21 -4 18 -14 -4 -11 -1 -13 10 -9 12 5 14 3 8 -8 -8 -12 -6 -12 8 0 10 8 20
11 24 7 3 -3 1 -6 -5 -6 -17 0 -15 -17 3 -24 8 -3 14 0 12 7 -1 7 6 11 15 9
20 -3 98 -53 98 -62 0 -3 15 -5 33 -3 17 2 38 4 44 5 8 1 9 6 4 12 -95 119
-149 204 -242 382 l-58 111 13 49 c7 27 12 70 10 97 -2 34 1 47 11 47 9 0 12
8 9 26 -5 29 -83 177 -96 182 -5 2 -6 8 -2 13 3 5 0 9 -6 9 -6 0 -9 4 -6 9 3
4 -3 16 -14 26 -11 10 -20 26 -20 37 0 10 -6 18 -14 18 -8 0 -18 9 -21 20 -3
11 -11 20 -17 20 -6 0 -8 11 -6 25 3 13 2 24 -1 23 -18 -2 -31 3 -31 13 0 6
-9 23 -20 39 -11 15 -17 30 -13 34 3 3 1 6 -5 6 -7 0 -12 7 -12 16 0 14 2 15
16 3 13 -11 12 -4 -5 28 -14 28 -26 40 -35 37 -9 -4 -21 6 -32 28 -10 18 -18
36 -19 40 0 3 -3 10 -7 13 -4 4 -3 16 2 26 7 12 6 20 -2 25 -6 4 -8 3 -4 -4 3
-6 2 -13 -2 -16 -12 -7 -36 39 -27 53 3 7 1 10 -6 9 -7 -2 -19 14 -26 35 -7
21 -20 45 -28 53 -8 9 -15 20 -15 25 0 16 5 24 12 22 4 -2 5 4 1 13 -4 12 -8
13 -14 3 -11 -18 -51 50 -46 79 3 16 1 20 -8 12 -8 -7 -16 -2 -25 18 -8 15
-14 29 -15 32 -6 27 -18 50 -26 50 -5 0 -9 6 -9 14 0 7 -9 25 -21 40 -11 14
-17 30 -14 36 3 5 1 10 -5 10 -7 0 -8 5 -1 17 6 12 5 26 -5 45 -8 15 -17 28
-20 28 -2 0 2 -13 11 -30 9 -18 11 -30 5 -30 -14 0 -32 49 -26 67 3 8 2 11 -3
8 -5 -3 -17 5 -25 17 -19 27 -11 38 9 12 12 -15 12 -11 -1 18 -10 20 -22 34
-29 32 -8 -3 -34 38 -70 108 -32 62 -63 124 -70 138 -30 58 -37 79 -30 89 4 7
1 10 -7 9 -8 -2 -13 6 -12 19 0 12 -2 22 -5 21 -22 -2 -31 6 -42 37 -7 19 -17
35 -21 35 -9 0 -6 22 4 30 3 3 -3 21 -14 40 -18 32 -18 28 -2 -17 10 -27 -50
58 -64 91 -11 24 -11 28 2 23 10 -4 13 -1 9 8 -3 8 -9 12 -15 9 -9 -6 -32 20
-54 63 -9 16 -9 24 0 34 7 8 7 10 0 6 -13 -7 -48 30 -52 57 -2 12 1 16 10 10
7 -4 3 7 -9 26 -12 19 -28 37 -35 39 -7 2 -5 -4 5 -14 10 -9 15 -20 12 -24 -4
-3 -13 3 -21 13 -10 15 -11 23 -2 33 9 11 8 13 -2 11 -7 -2 -15 3 -18 11 -3 9
0 11 8 6 9 -5 11 -4 6 4 -4 6 -12 8 -18 5 -6 -4 -9 -1 -6 7 7 18 -9 49 -24 49
-6 0 -3 -9 7 -20 10 -11 15 -20 10 -20 -11 0 -34 32 -35 48 0 7 5 10 12 6 7
-4 8 -3 4 4 -4 6 -12 9 -19 6 -8 -2 -20 8 -28 23 -8 15 -16 30 -19 33 -19 18
-38 60 -30 65 6 3 10 3 10 -2 0 -4 10 -19 21 -33 l21 -25 -21 35 c-11 19 -28
34 -36 34 -8 -1 -15 5 -15 13 0 8 5 11 10 8 6 -3 0 10 -11 30 -13 22 -27 34
-35 31 -8 -3 -14 -1 -14 4 0 6 5 10 10 10 6 0 -12 35 -38 78 -65 103 -124 214
-118 220 9 9 56 -28 152 -120 53 -49 98 -88 101 -84 3 3 0 12 -7 21 -7 8 -9
15 -4 15 4 0 0 6 -11 13 -11 9 -15 19 -10 27 6 9 4 11 -5 5 -10 -6 -12 -4 -7
9 4 9 3 14 -2 11 -12 -7 -25 31 -16 45 3 5 -1 10 -10 10 -15 0 -42 50 -51 93
-2 10 -6 28 -10 39 -4 14 -2 18 5 14 7 -4 9 -1 5 8 -3 9 -12 12 -22 9 -9 -4
-14 -3 -10 1 3 4 0 23 -8 41 -17 41 -17 48 -4 40 6 -3 7 1 4 9 -3 9 -10 13
-15 10 -14 -8 -29 39 -15 48 7 5 5 8 -5 8 -19 0 -43 46 -29 55 6 4 10 12 10
18 0 8 -4 7 -9 -2 -7 -11 -13 -5 -25 24 -9 20 -16 40 -16 42 0 4 -113 296
-139 358 -5 11 -20 45 -34 75 -16 34 -22 59 -16 65 5 5 9 14 9 20 0 5 -4 4 -8
-3 -6 -9 -12 -6 -20 13 -7 15 -8 25 -2 25 6 0 10 5 10 11 0 5 -4 8 -9 4 -5 -3
-12 4 -16 15 -3 11 -10 20 -15 20 -5 0 -7 19 -6 43 2 23 1 36 -1 30 -3 -7 -9
-13 -14 -13 -6 0 -5 9 2 21 7 14 7 19 0 15 -16 -10 -32 28 -18 44 8 8 8 11 1
7 -15 -8 -39 47 -30 68 3 9 2 14 -3 11 -13 -9 -44 63 -38 90 2 13 1 21 -3 19
-4 -3 -13 2 -19 9 -9 11 -9 16 0 22 8 5 9 3 4 -6 -5 -8 -4 -11 3 -7 11 8 4 47
-9 47 -5 0 -6 -7 -3 -15 4 -8 2 -15 -4 -15 -13 0 -23 53 -12 64 5 5 -11 64
-35 134 -43 121 -55 148 -55 124 0 -7 -4 -12 -10 -12 -5 0 -10 8 -10 18 0 26
-37 95 -57 106 -15 8 -15 5 2 -14z m95 -154 c0 -8 8 -34 18 -58 11 -24 22 -56
26 -73 7 -28 6 -29 -7 -10 -8 11 -22 43 -30 70 -8 28 -18 58 -22 68 -4 10 -3
17 4 17 6 0 11 -6 11 -14z m675 -1786 c3 -5 1 -10 -4 -10 -6 0 -11 5 -11 10 0
6 2 10 4 10 3 0 8 -4 11 -10z m-75 -116 c0 -8 -5 -12 -10 -9 -6 4 -8 11 -5 16
9 14 15 11 15 -7z m148 -707 c26 -42 95 -152 155 -245 95 -150 159 -263 334
-592 25 -47 74 -137 108 -200 112 -207 223 -434 240 -490 8 -30 18 -91 21
-135 l6 -80 -42 65 c-54 82 -147 247 -235 415 -38 72 -139 263 -225 425 -296
555 -430 840 -430 912 0 30 11 18 68 -75z m1018 -1404 c-3 -3 -13 0 -21 7 -13
10 -13 15 -3 21 13 8 35 -17 24 -28z"/>
<path d="M2666 5374 c-4 -9 -4 -19 -1 -22 2 -3 7 3 11 12 4 9 4 19 1 22 -2 3
-7 -3 -11 -12z"/>
<path d="M3410 4175 c0 -5 5 -17 10 -25 5 -8 10 -10 10 -5 0 6 -5 17 -10 25
-5 8 -10 11 -10 5z"/>
<path d="M3643 3375 c0 -8 4 -12 9 -9 5 3 6 10 3 15 -9 13 -12 11 -12 -6z"/>
<path d="M3326 2307 c3 -10 9 -15 12 -12 3 3 0 11 -7 18 -10 9 -11 8 -5 -6z"/>
<path d="M1225 2250 c-9 -16 -13 -30 -11 -30 3 0 12 14 21 30 9 17 13 30 11
30 -3 0 -12 -13 -21 -30z"/>
<path d="M3356 2247 c3 -10 9 -15 12 -12 3 3 0 11 -7 18 -10 9 -11 8 -5 -6z"/>
<path d="M1146 2093 c-6 -14 -5 -15 5 -6 7 7 10 15 7 18 -3 3 -9 -2 -12 -12z"/>
<path d="M4360 2081 c0 -6 4 -13 10 -16 6 -3 7 1 4 9 -7 18 -14 21 -14 7z"/>
<path d="M4390 2030 c6 -11 13 -20 16 -20 2 0 0 9 -6 20 -6 11 -13 20 -16 20
-2 0 0 -9 6 -20z"/>
<path d="M4410 1991 c0 -6 4 -13 10 -16 6 -3 7 1 4 9 -7 18 -14 21 -14 7z"/>
<path d="M1076 1953 c-6 -14 -5 -15 5 -6 7 7 10 15 7 18 -3 3 -9 -2 -12 -12z"/>
<path d="M3520 1915 c0 -5 5 -17 10 -25 5 -8 10 -10 10 -5 0 6 -5 17 -10 25
-5 8 -10 11 -10 5z"/>
<path d="M1006 1813 c-6 -14 -5 -15 5 -6 7 7 10 15 7 18 -3 3 -9 -2 -12 -12z"/>
<path d="M4500 1821 c0 -6 4 -13 10 -16 6 -3 7 1 4 9 -7 18 -14 21 -14 7z"/>
<path d="M956 1713 c-6 -14 -5 -15 5 -6 7 7 10 15 7 18 -3 3 -9 -2 -12 -12z"/>
<path d="M4610 1611 c0 -6 4 -13 10 -16 6 -3 7 1 4 9 -7 18 -14 21 -14 7z"/>
<path d="M847 1495 c-9 -19 -15 -35 -12 -35 7 0 37 61 33 66 -3 2 -12 -12 -21
-31z"/>
<path d="M786 1380 c-20 -38 -35 -70 -32 -70 7 0 78 131 73 136 -2 3 -21 -27
-41 -66z"/>
<path d="M4730 1391 c0 -6 4 -13 10 -16 6 -3 7 1 4 9 -7 18 -14 21 -14 7z"/>
<path d="M4760 1330 c0 -5 5 -10 11 -10 5 0 7 5 4 10 -3 6 -8 10 -11 10 -2 0
-4 -4 -4 -10z"/>
<path d="M2235 1310 c-16 -11 -25 -20 -20 -20 10 0 64 39 55 40 -3 0 -18 -9
-35 -20z"/>
<path d="M4780 1301 c0 -6 4 -13 10 -16 6 -3 7 1 4 9 -7 18 -14 21 -14 7z"/>
<path d="M3326 1288 c3 -5 10 -6 15 -3 13 9 11 12 -6 12 -8 0 -12 -4 -9 -9z"/>
<path d="M2150 1260 c-9 -6 -10 -10 -3 -10 6 0 15 5 18 10 8 12 4 12 -15 0z"/>
<path d="M3480 1191 c0 -6 4 -13 10 -16 6 -3 7 1 4 9 -7 18 -14 21 -14 7z"/>
<path d="M626 1073 c-6 -14 -5 -15 5 -6 7 7 10 15 7 18 -3 3 -9 -2 -12 -12z"/>
<path d="M3737 1009 c7 -7 15 -10 18 -7 3 3 -2 9 -12 12 -14 6 -15 5 -6 -5z"/>
<path d="M3880 918 c0 -7 138 -98 147 -98 4 0 -15 15 -42 33 -86 58 -105 69
-105 65z"/>
<path d="M500 840 c-11 -22 -18 -40 -15 -40 2 0 14 18 25 40 11 22 18 40 15
40 -2 0 -14 -18 -25 -40z"/>
<path d="M4080 786 c0 -2 8 -10 18 -17 15 -13 16 -12 3 4 -13 16 -21 21 -21
13z"/>
<path d="M4380 586 c0 -2 7 -7 16 -10 8 -3 12 -2 9 4 -6 10 -25 14 -25 6z"/>
<path d="M4420 571 c0 -5 7 -12 16 -15 14 -5 15 -4 4 9 -14 17 -20 19 -20 6z"/>
<path d="M4506 531 c-3 -5 1 -11 9 -14 9 -4 12 -1 8 9 -6 16 -10 17 -17 5z"/>
<path d="M4550 500 c8 -5 20 -10 25 -10 6 0 3 5 -5 10 -8 5 -19 10 -25 10 -5
0 -3 -5 5 -10z"/>
<path d="M286 433 c-6 -14 -5 -15 5 -6 7 7 10 15 7 18 -3 3 -9 -2 -12 -12z"/>
<path d="M4840 380 c-9 -6 -10 -10 -3 -10 6 0 15 5 18 10 8 12 4 12 -15 0z"/>
<path d="M241 347 c-13 -21 -12 -21 5 -5 10 10 16 20 13 22 -3 3 -11 -5 -18
-17z"/>
<path d="M201 273 c-10 -26 -10 -27 4 -9 8 11 15 23 15 28 0 15 -7 8 -19 -19z"/>
<path d="M137 142 c-30 -64 -32 -72 -11 -47 13 17 24 35 24 41 0 6 10 16 23
23 12 6 14 9 5 7 -21 -6 -22 -2 -7 26 6 11 9 22 7 24 -3 2 -21 -31 -41 -74z"/>
</g>
</svg>
